<svg width="22" height="26" viewBox="0 0 22 26" fill="none" xmlns="http://www.w3.org/2000/svg">
<path d="M4.125 26C4.06633 26 4.00583 25.987 3.94992 25.9588C3.7785 25.8754 3.66667 25.6772 3.66667 25.4583V20.5833H2.29167C1.02758 20.5833 0 19.3678 0 17.875V2.70833C0 1.2155 1.02758 0 2.29167 0H19.7083C20.9724 0 22 1.2155 22 2.70833V17.875C22 19.3678 20.9724 20.5833 19.7083 20.5833H8.89808L4.44858 25.8418C4.3615 25.9448 4.24417 26 4.125 26ZM2.29167 1.08333C1.53358 1.08333 0.916667 1.81242 0.916667 2.70833V17.875C0.916667 18.7709 1.53358 19.5 2.29167 19.5H4.125C4.378 19.5 4.58333 19.7427 4.58333 20.0417V24.1507L8.38383 19.6593C8.47 19.5574 8.58642 19.5 8.70833 19.5H19.7083C20.4664 19.5 21.0833 18.7709 21.0833 17.875V2.70833C21.0833 1.81242 20.4664 1.08333 19.7083 1.08333H2.29167Z" fill="black"/>
<path d="M12.375 16.25C12.0037 16.25 11.6554 16.0778 11.396 15.7647L7.08399 10.8485C6.65041 10.3274 6.41666 9.65251 6.41666 8.93751V5.41668C6.41666 4.81976 6.82732 4.33334 7.33332 4.33334H10.3125C10.9184 4.33334 11.4895 4.60959 11.9212 5.11226L16.0985 10.2267C16.3552 10.5257 16.5 10.9363 16.5 11.375C16.5 11.8083 16.357 12.2168 16.0976 12.5244L13.3476 15.7744C13.0882 16.081 12.7426 16.25 12.375 16.25ZM7.33332 5.41668V8.93751C7.33332 9.36651 7.47357 9.77167 7.72932 10.0783L12.0413 14.9955C12.2302 15.223 12.5253 15.2143 12.6986 15.0085L15.4495 11.7585C15.5357 11.6556 15.5833 11.5191 15.5833 11.375C15.5833 11.2288 15.5347 11.0912 15.4467 10.9893L11.2695 5.87493C11.0192 5.58243 10.6755 5.41668 10.3125 5.41668H7.33332Z" fill="black"/>
</svg>
