<svg width="25" height="25" viewBox="0 0 25 25" fill="none" xmlns="http://www.w3.org/2000/svg">
<path d="M11.4426 25C13.3291 25 14.9073 23.6551 15.2697 21.875H7.61548C7.97807 23.6551 9.55621 25 11.4426 25Z" fill="white"/>
<path d="M18.7458 12.499C18.7416 12.499 18.7374 12.5 18.7332 12.5C14.7137 12.5 11.442 9.22906 11.442 5.20837C11.442 4.10307 11.6962 3.05822 12.1389 2.11866C11.9096 2.09692 11.6773 2.08337 11.442 2.08337C7.41523 2.08337 4.1508 5.3478 4.1508 9.37498V12.2791C4.1508 14.3406 3.24772 16.2864 1.66338 17.626C1.13526 18.0771 0.900863 18.7958 1.09044 19.4969C1.3113 20.3125 2.11749 20.8334 2.96335 20.8334H19.9155C20.8029 20.8334 21.6394 20.2583 21.8195 19.3886C21.9591 18.7156 21.7195 18.0437 21.1977 17.6052C19.6832 16.3355 18.8072 14.4697 18.7458 12.499Z" fill="white"/>
<path d="M23.9425 5.2084C23.9425 8.08487 21.6108 10.4166 18.7341 10.4166C15.8577 10.4166 13.5259 8.08487 13.5259 5.2084C13.5259 2.33192 15.8577 0 18.7341 0C21.6108 0 23.9425 2.33192 23.9425 5.2084Z" fill="white"/>
</svg>
