<svg width="330" height="95" viewBox="0 0 330 95" fill="none" xmlns="http://www.w3.org/2000/svg">
<path d="M5.41465 18.18C4.55065 18.18 3.78265 18.072 3.11065 17.856C2.43865 17.64 1.80865 17.274 1.22065 16.758C0.896648 16.47 0.734648 16.152 0.734648 15.804C0.734648 15.528 0.836648 15.288 1.04065 15.084C1.24465 14.868 1.49065 14.76 1.77865 14.76C2.00665 14.76 2.21065 14.832 2.39065 14.976C2.87065 15.372 3.33865 15.66 3.79465 15.84C4.25065 16.02 4.79065 16.11 5.41465 16.11C6.08665 16.11 6.66265 15.96 7.14265 15.66C7.63465 15.36 7.88065 14.988 7.88065 14.544C7.88065 14.004 7.64065 13.584 7.16065 13.284C6.68065 12.972 5.91865 12.738 4.87465 12.582C2.24665 12.198 0.932648 10.974 0.932648 8.91C0.932648 8.154 1.13065 7.5 1.52665 6.948C1.92265 6.384 2.46265 5.958 3.14665 5.67C3.83065 5.37 4.59265 5.22 5.43265 5.22C6.18865 5.22 6.89665 5.334 7.55665 5.562C8.22865 5.79 8.78665 6.09 9.23065 6.462C9.57865 6.738 9.75265 7.056 9.75265 7.416C9.75265 7.692 9.65065 7.938 9.44665 8.154C9.24265 8.358 9.00265 8.46 8.72665 8.46C8.54665 8.46 8.38465 8.406 8.24065 8.298C7.92865 8.046 7.49065 7.818 6.92665 7.614C6.37465 7.398 5.87665 7.29 5.43265 7.29C4.67665 7.29 4.08865 7.434 3.66865 7.722C3.26065 7.998 3.05665 8.364 3.05665 8.82C3.05665 9.336 3.26665 9.726 3.68665 9.99C4.11865 10.254 4.79065 10.47 5.70265 10.638C6.73465 10.818 7.55665 11.052 8.16865 11.34C8.79265 11.616 9.26065 12 9.57265 12.492C9.88465 12.972 10.0406 13.614 10.0406 14.418C10.0406 15.174 9.82465 15.84 9.39265 16.416C8.97265 16.98 8.40865 17.418 7.70065 17.73C6.99265 18.03 6.23065 18.18 5.41465 18.18ZM13.9589 16.902C13.9589 17.214 13.8569 17.478 13.6529 17.694C13.4489 17.898 13.1909 18 12.8789 18C12.5669 18 12.3089 17.898 12.1049 17.694C11.9009 17.478 11.7989 17.214 11.7989 16.902V9.468C11.7989 9.156 11.9009 8.898 12.1049 8.694C12.3089 8.478 12.5669 8.37 12.8789 8.37C13.1909 8.37 13.4489 8.478 13.6529 8.694C13.8569 8.898 13.9589 9.156 13.9589 9.468V16.902ZM12.8609 7.2C12.4529 7.2 12.1649 7.134 11.9969 7.002C11.8289 6.87 11.7449 6.636 11.7449 6.3V5.958C11.7449 5.622 11.8349 5.388 12.0149 5.256C12.1949 5.124 12.4829 5.058 12.8789 5.058C13.2989 5.058 13.5929 5.124 13.7609 5.256C13.9289 5.388 14.0129 5.622 14.0129 5.958V6.3C14.0129 6.648 13.9229 6.888 13.7429 7.02C13.5749 7.14 13.2809 7.2 12.8609 7.2ZM24.1528 8.19C24.4648 8.19 24.7228 8.292 24.9268 8.496C25.1308 8.7 25.2328 8.964 25.2328 9.288V17.298C25.2328 18.762 24.7768 19.842 23.8648 20.538C22.9648 21.246 21.8188 21.6 20.4268 21.6C20.0668 21.6 19.5688 21.54 18.9328 21.42C18.3088 21.3 17.8648 21.18 17.6008 21.06C17.0128 20.808 16.7188 20.46 16.7188 20.016C16.7188 19.932 16.7368 19.836 16.7728 19.728C16.8448 19.464 16.9648 19.26 17.1328 19.116C17.3128 18.984 17.5048 18.918 17.7088 18.918C17.8288 18.918 17.9428 18.936 18.0508 18.972C18.0988 18.984 18.3928 19.092 18.9328 19.296C19.4848 19.512 19.9828 19.62 20.4268 19.62C21.3148 19.62 21.9748 19.44 22.4068 19.08C22.8508 18.732 23.0728 18.234 23.0728 17.586V16.722C22.8088 17.094 22.4068 17.43 21.8668 17.73C21.3388 18.03 20.7688 18.18 20.1568 18.18C19.3168 18.18 18.5488 17.97 17.8528 17.55C17.1688 17.118 16.6288 16.524 16.2328 15.768C15.8368 15.012 15.6388 14.154 15.6388 13.194C15.6388 12.234 15.8308 11.376 16.2148 10.62C16.6108 9.852 17.1448 9.258 17.8168 8.838C18.5008 8.406 19.2568 8.19 20.0848 8.19C20.6968 8.19 21.2668 8.316 21.7948 8.568C22.3228 8.82 22.7488 9.126 23.0728 9.486V9.288C23.0728 8.976 23.1748 8.718 23.3788 8.514C23.5828 8.298 23.8408 8.19 24.1528 8.19ZM20.4268 16.2C21.2308 16.2 21.8848 15.918 22.3888 15.354C22.9048 14.778 23.1628 14.058 23.1628 13.194C23.1628 12.33 22.9048 11.61 22.3888 11.034C21.8848 10.458 21.2308 10.17 20.4268 10.17C19.6228 10.17 18.9688 10.458 18.4648 11.034C17.9608 11.61 17.7088 12.33 17.7088 13.194C17.7088 14.058 17.9608 14.778 18.4648 15.354C18.9688 15.918 19.6228 16.2 20.4268 16.2ZM32.7174 8.19C33.9414 8.19 34.7874 8.556 35.2554 9.288C35.7234 10.008 35.9574 11.01 35.9574 12.294V16.902C35.9574 17.214 35.8554 17.478 35.6514 17.694C35.4474 17.898 35.1894 18 34.8774 18C34.5654 18 34.3074 17.898 34.1034 17.694C33.8994 17.478 33.7974 17.214 33.7974 16.902V12.294C33.7974 11.634 33.6594 11.118 33.3834 10.746C33.1074 10.362 32.6334 10.17 31.9614 10.17C31.2654 10.17 30.7194 10.374 30.3234 10.782C29.9274 11.178 29.7294 11.682 29.7294 12.294V16.902C29.7294 17.214 29.6274 17.478 29.4234 17.694C29.2194 17.898 28.9614 18 28.6494 18C28.3374 18 28.0794 17.898 27.8754 17.694C27.6714 17.478 27.5694 17.214 27.5694 16.902V9.468C27.5694 9.156 27.6714 8.898 27.8754 8.694C28.0794 8.478 28.3374 8.37 28.6494 8.37C28.9614 8.37 29.2194 8.478 29.4234 8.694C29.6274 8.898 29.7294 9.156 29.7294 9.468V9.774C30.0534 9.342 30.4734 8.97 30.9894 8.658C31.5174 8.346 32.0934 8.19 32.7174 8.19ZM50.483 8.37C50.795 8.37 51.053 8.478 51.257 8.694C51.461 8.898 51.563 9.156 51.563 9.468V14.04C51.563 15.336 51.203 16.35 50.483 17.082C49.775 17.814 48.761 18.18 47.441 18.18C46.121 18.18 45.107 17.814 44.399 17.082C43.691 16.35 43.337 15.336 43.337 14.04V9.468C43.337 9.156 43.439 8.898 43.643 8.694C43.847 8.478 44.105 8.37 44.417 8.37C44.729 8.37 44.987 8.478 45.191 8.694C45.395 8.898 45.497 9.156 45.497 9.468V14.04C45.497 14.772 45.659 15.318 45.983 15.678C46.307 16.026 46.793 16.2 47.441 16.2C48.101 16.2 48.593 16.026 48.917 15.678C49.241 15.318 49.403 14.772 49.403 14.04V9.468C49.403 9.156 49.505 8.898 49.709 8.694C49.913 8.478 50.171 8.37 50.483 8.37ZM58.8874 8.19C59.7154 8.19 60.4654 8.406 61.1374 8.838C61.8094 9.258 62.3374 9.846 62.7214 10.602C63.1174 11.358 63.3154 12.216 63.3154 13.176C63.3154 14.136 63.1234 15 62.7394 15.768C62.3554 16.524 61.8274 17.118 61.1554 17.55C60.4954 17.97 59.7634 18.18 58.9594 18.18C58.3834 18.18 57.8374 18.066 57.3214 17.838C56.8174 17.598 56.3974 17.31 56.0614 16.974V20.502C56.0614 20.814 55.9594 21.072 55.7554 21.276C55.5514 21.492 55.2934 21.6 54.9814 21.6C54.6694 21.6 54.4114 21.498 54.2074 21.294C54.0034 21.09 53.9014 20.826 53.9014 20.502V9.468C53.9014 9.156 54.0034 8.898 54.2074 8.694C54.4114 8.478 54.6694 8.37 54.9814 8.37C55.2934 8.37 55.5514 8.478 55.7554 8.694C55.9594 8.898 56.0614 9.156 56.0614 9.468V9.54C56.3494 9.18 56.7514 8.868 57.2674 8.604C57.7834 8.328 58.3234 8.19 58.8874 8.19ZM58.6174 16.2C59.3854 16.2 60.0154 15.912 60.5074 15.336C60.9994 14.76 61.2454 14.04 61.2454 13.176C61.2454 12.312 60.9994 11.598 60.5074 11.034C60.0274 10.458 59.3974 10.17 58.6174 10.17C57.8374 10.17 57.2014 10.458 56.7094 11.034C56.2174 11.598 55.9714 12.312 55.9714 13.176C55.9714 14.04 56.2174 14.76 56.7094 15.336C57.2014 15.912 57.8374 16.2 58.6174 16.2ZM74.7872 6.588C74.3792 6.588 74.0912 6.708 73.9232 6.948C73.7552 7.176 73.6712 7.428 73.6712 7.704V8.55H75.3092C75.5972 8.55 75.8372 8.646 76.0292 8.838C76.2212 9.018 76.3172 9.252 76.3172 9.54C76.3172 9.828 76.2212 10.068 76.0292 10.26C75.8372 10.44 75.5972 10.53 75.3092 10.53H73.6712V16.902C73.6712 17.214 73.5692 17.478 73.3652 17.694C73.1612 17.898 72.9032 18 72.5912 18C72.2792 18 72.0212 17.898 71.8172 17.694C71.6132 17.478 71.5112 17.214 71.5112 16.902V10.53H70.5392C70.2512 10.53 70.0112 10.44 69.8192 10.26C69.6272 10.068 69.5312 9.828 69.5312 9.54C69.5312 9.252 69.6272 9.018 69.8192 8.838C70.0112 8.646 70.2512 8.55 70.5392 8.55H71.5112V7.722C71.5112 6.822 71.8172 6.09 72.4292 5.526C73.0532 4.962 73.9472 4.68 75.1112 4.68C75.5552 4.68 75.9392 4.77 76.2632 4.95C76.5992 5.13 76.7672 5.406 76.7672 5.778C76.7672 6.066 76.6832 6.3 76.5152 6.48C76.3472 6.66 76.1432 6.75 75.9032 6.75C75.8432 6.75 75.7772 6.744 75.7052 6.732C75.6452 6.72 75.5792 6.708 75.5072 6.696C75.2192 6.624 74.9792 6.588 74.7872 6.588ZM86.9191 13.194C86.9191 14.154 86.7031 15.018 86.2711 15.786C85.8391 16.542 85.2451 17.13 84.4891 17.55C83.7451 17.97 82.9231 18.18 82.0231 18.18C81.1111 18.18 80.2831 17.97 79.5391 17.55C78.7951 17.13 78.2071 16.542 77.7751 15.786C77.3431 15.018 77.1271 14.154 77.1271 13.194C77.1271 12.234 77.3431 11.376 77.7751 10.62C78.2071 9.852 78.7951 9.258 79.5391 8.838C80.2831 8.406 81.1111 8.19 82.0231 8.19C82.9231 8.19 83.7451 8.406 84.4891 8.838C85.2451 9.258 85.8391 9.852 86.2711 10.62C86.7031 11.376 86.9191 12.234 86.9191 13.194ZM84.7591 13.194C84.7591 12.606 84.6331 12.084 84.3811 11.628C84.1411 11.16 83.8111 10.8 83.3911 10.548C82.9831 10.296 82.5271 10.17 82.0231 10.17C81.5191 10.17 81.0571 10.296 80.6371 10.548C80.2291 10.8 79.8991 11.16 79.6471 11.628C79.4071 12.084 79.2871 12.606 79.2871 13.194C79.2871 13.782 79.4071 14.304 79.6471 14.76C79.8991 15.216 80.2291 15.57 80.6371 15.822C81.0571 16.074 81.5191 16.2 82.0231 16.2C82.5271 16.2 82.9831 16.074 83.3911 15.822C83.8111 15.57 84.1411 15.216 84.3811 14.76C84.6331 14.304 84.7591 13.782 84.7591 13.194ZM93.7277 8.19C94.0877 8.19 94.3877 8.292 94.6277 8.496C94.8797 8.7 95.0057 8.94 95.0057 9.216C95.0057 9.588 94.9097 9.87 94.7177 10.062C94.5257 10.242 94.2977 10.332 94.0337 10.332C93.8537 10.332 93.6497 10.29 93.4217 10.206C93.3857 10.194 93.3017 10.17 93.1697 10.134C93.0497 10.098 92.9177 10.08 92.7737 10.08C92.4617 10.08 92.1617 10.176 91.8737 10.368C91.5857 10.56 91.3457 10.854 91.1537 11.25C90.9737 11.634 90.8837 12.096 90.8837 12.636V16.902C90.8837 17.214 90.7817 17.478 90.5777 17.694C90.3737 17.898 90.1157 18 89.8037 18C89.4917 18 89.2337 17.898 89.0297 17.694C88.8257 17.478 88.7237 17.214 88.7237 16.902V9.468C88.7237 9.156 88.8257 8.898 89.0297 8.694C89.2337 8.478 89.4917 8.37 89.8037 8.37C90.1157 8.37 90.3737 8.478 90.5777 8.694C90.7817 8.898 90.8837 9.156 90.8837 9.468V9.702C91.1597 9.21 91.5557 8.838 92.0717 8.586C92.5877 8.322 93.1397 8.19 93.7277 8.19ZM106.721 8.19C107.945 8.19 108.791 8.556 109.259 9.288C109.727 10.008 109.961 11.01 109.961 12.294V16.902C109.961 17.214 109.859 17.478 109.655 17.694C109.451 17.898 109.193 18 108.881 18C108.569 18 108.311 17.898 108.107 17.694C107.903 17.478 107.801 17.214 107.801 16.902V12.294C107.801 11.634 107.663 11.118 107.387 10.746C107.111 10.362 106.637 10.17 105.965 10.17C105.269 10.17 104.723 10.374 104.327 10.782C103.931 11.178 103.733 11.682 103.733 12.294V16.902C103.733 17.214 103.631 17.478 103.427 17.694C103.223 17.898 102.965 18 102.653 18C102.341 18 102.083 17.898 101.879 17.694C101.675 17.478 101.573 17.214 101.573 16.902V9.468C101.573 9.156 101.675 8.898 101.879 8.694C102.083 8.478 102.341 8.37 102.653 8.37C102.965 8.37 103.223 8.478 103.427 8.694C103.631 8.898 103.733 9.156 103.733 9.468V9.774C104.057 9.342 104.477 8.97 104.993 8.658C105.521 8.346 106.097 8.19 106.721 8.19ZM120.936 12.96C120.924 13.248 120.81 13.482 120.594 13.662C120.378 13.842 120.126 13.932 119.838 13.932H113.898C114.042 14.64 114.372 15.198 114.888 15.606C115.404 16.002 115.986 16.2 116.634 16.2C117.126 16.2 117.51 16.158 117.786 16.074C118.062 15.978 118.278 15.882 118.434 15.786C118.602 15.678 118.716 15.606 118.776 15.57C118.992 15.462 119.196 15.408 119.388 15.408C119.64 15.408 119.856 15.498 120.036 15.678C120.216 15.858 120.306 16.068 120.306 16.308C120.306 16.632 120.138 16.926 119.802 17.19C119.466 17.466 119.016 17.7 118.452 17.892C117.888 18.084 117.318 18.18 116.742 18.18C115.734 18.18 114.852 17.97 114.096 17.55C113.352 17.13 112.776 16.554 112.368 15.822C111.96 15.078 111.756 14.244 111.756 13.32C111.756 12.288 111.972 11.382 112.404 10.602C112.836 9.822 113.406 9.228 114.114 8.82C114.822 8.4 115.578 8.19 116.382 8.19C117.174 8.19 117.918 8.406 118.614 8.838C119.322 9.27 119.886 9.852 120.306 10.584C120.726 11.316 120.936 12.108 120.936 12.96ZM116.382 10.17C114.99 10.17 114.168 10.824 113.916 12.132H118.632V12.006C118.584 11.502 118.338 11.07 117.894 10.71C117.45 10.35 116.946 10.17 116.382 10.17ZM133.825 8.37C134.113 8.37 134.353 8.478 134.545 8.694C134.749 8.898 134.851 9.162 134.851 9.486C134.851 9.594 134.827 9.732 134.779 9.9L132.025 17.316C131.953 17.532 131.821 17.706 131.629 17.838C131.449 17.958 131.251 18.018 131.035 18.018L130.891 18C130.483 17.976 130.177 17.748 129.973 17.316L128.443 12.888L126.985 17.316C126.781 17.748 126.475 17.976 126.067 18L125.923 18.018C125.707 18.018 125.503 17.958 125.311 17.838C125.131 17.706 125.005 17.532 124.933 17.316L122.179 9.9C122.131 9.768 122.107 9.63 122.107 9.486C122.107 9.186 122.203 8.928 122.395 8.712C122.599 8.484 122.863 8.37 123.187 8.37C123.427 8.37 123.631 8.43 123.799 8.55C123.979 8.658 124.105 8.826 124.177 9.054L126.121 14.328L127.543 10.476C127.735 10.032 128.065 9.81 128.533 9.81C128.785 9.81 128.977 9.864 129.109 9.972C129.253 10.08 129.373 10.248 129.469 10.476L130.855 14.238L132.781 9.054C132.853 8.826 132.979 8.658 133.159 8.55C133.339 8.43 133.561 8.37 133.825 8.37ZM135.908 16.506C135.8 16.362 135.746 16.182 135.746 15.966C135.746 15.654 135.902 15.39 136.214 15.174C136.382 15.066 136.556 15.012 136.736 15.012C136.988 15.012 137.228 15.126 137.456 15.354C137.816 15.726 138.188 16.002 138.572 16.182C138.968 16.362 139.442 16.452 139.994 16.452C140.93 16.416 141.398 16.062 141.398 15.39C141.398 15.042 141.236 14.778 140.912 14.598C140.6 14.418 140.108 14.238 139.436 14.058C138.74 13.866 138.17 13.674 137.726 13.482C137.294 13.29 136.916 13.002 136.592 12.618C136.28 12.222 136.124 11.694 136.124 11.034C136.124 10.458 136.286 9.96 136.61 9.54C136.946 9.108 137.378 8.778 137.906 8.55C138.446 8.31 139.016 8.19 139.616 8.19C140.228 8.19 140.84 8.304 141.452 8.532C142.064 8.76 142.544 9.096 142.892 9.54C143.048 9.732 143.126 9.948 143.126 10.188C143.126 10.464 143.012 10.692 142.784 10.872C142.616 11.004 142.424 11.07 142.208 11.07C141.944 11.07 141.728 10.986 141.56 10.818C141.344 10.554 141.062 10.344 140.714 10.188C140.378 10.032 139.994 9.954 139.562 9.954C138.65 9.954 138.194 10.284 138.194 10.944C138.194 11.208 138.278 11.424 138.446 11.592C138.614 11.748 138.824 11.874 139.076 11.97C139.34 12.054 139.706 12.162 140.174 12.294C140.822 12.474 141.362 12.66 141.794 12.852C142.226 13.044 142.592 13.338 142.892 13.734C143.192 14.13 143.342 14.652 143.342 15.3C143.342 15.888 143.168 16.404 142.82 16.848C142.472 17.28 142.022 17.61 141.47 17.838C140.93 18.066 140.372 18.18 139.796 18.18C139.004 18.18 138.266 18.048 137.582 17.784C136.898 17.52 136.34 17.094 135.908 16.506ZM147.489 16.902C147.489 17.214 147.381 17.478 147.165 17.694C146.961 17.898 146.703 18 146.391 18C146.091 18 145.839 17.898 145.635 17.694C145.431 17.478 145.329 17.214 145.329 16.902V5.778C145.329 5.466 145.431 5.208 145.635 5.004C145.851 4.788 146.115 4.68 146.427 4.68C146.727 4.68 146.979 4.788 147.183 5.004C147.387 5.208 147.489 5.466 147.489 5.778V16.902ZM158.465 12.96C158.453 13.248 158.339 13.482 158.123 13.662C157.907 13.842 157.655 13.932 157.367 13.932H151.427C151.571 14.64 151.901 15.198 152.417 15.606C152.933 16.002 153.515 16.2 154.163 16.2C154.655 16.2 155.039 16.158 155.315 16.074C155.591 15.978 155.807 15.882 155.963 15.786C156.131 15.678 156.245 15.606 156.305 15.57C156.521 15.462 156.725 15.408 156.917 15.408C157.169 15.408 157.385 15.498 157.565 15.678C157.745 15.858 157.835 16.068 157.835 16.308C157.835 16.632 157.667 16.926 157.331 17.19C156.995 17.466 156.545 17.7 155.981 17.892C155.417 18.084 154.847 18.18 154.271 18.18C153.263 18.18 152.381 17.97 151.625 17.55C150.881 17.13 150.305 16.554 149.897 15.822C149.489 15.078 149.285 14.244 149.285 13.32C149.285 12.288 149.501 11.382 149.933 10.602C150.365 9.822 150.935 9.228 151.643 8.82C152.351 8.4 153.107 8.19 153.911 8.19C154.703 8.19 155.447 8.406 156.143 8.838C156.851 9.27 157.415 9.852 157.835 10.584C158.255 11.316 158.465 12.108 158.465 12.96ZM153.911 10.17C152.519 10.17 151.697 10.824 151.445 12.132H156.161V12.006C156.113 11.502 155.867 11.07 155.423 10.71C154.979 10.35 154.475 10.17 153.911 10.17ZM164.911 15.966C165.079 15.966 165.229 16.05 165.361 16.218C165.505 16.374 165.577 16.584 165.577 16.848C165.577 17.172 165.397 17.448 165.037 17.676C164.689 17.892 164.293 18 163.849 18C163.105 18 162.475 17.844 161.959 17.532C161.455 17.208 161.203 16.53 161.203 15.498V10.53H160.375C160.087 10.53 159.847 10.434 159.655 10.242C159.463 10.05 159.367 9.81 159.367 9.522C159.367 9.246 159.463 9.018 159.655 8.838C159.847 8.646 160.087 8.55 160.375 8.55H161.203V7.398C161.203 7.086 161.305 6.828 161.509 6.624C161.725 6.408 161.989 6.3 162.301 6.3C162.601 6.3 162.853 6.408 163.057 6.624C163.261 6.828 163.363 7.086 163.363 7.398V8.55H164.641C164.929 8.55 165.169 8.646 165.361 8.838C165.553 9.03 165.649 9.27 165.649 9.558C165.649 9.834 165.553 10.068 165.361 10.26C165.169 10.44 164.929 10.53 164.641 10.53H163.363V15.408C163.363 15.66 163.429 15.846 163.561 15.966C163.693 16.074 163.873 16.128 164.101 16.128C164.197 16.128 164.329 16.104 164.497 16.056C164.641 15.996 164.779 15.966 164.911 15.966ZM172.276 15.966C172.444 15.966 172.594 16.05 172.726 16.218C172.87 16.374 172.942 16.584 172.942 16.848C172.942 17.172 172.762 17.448 172.402 17.676C172.054 17.892 171.658 18 171.214 18C170.47 18 169.84 17.844 169.324 17.532C168.82 17.208 168.568 16.53 168.568 15.498V10.53H167.74C167.452 10.53 167.212 10.434 167.02 10.242C166.828 10.05 166.732 9.81 166.732 9.522C166.732 9.246 166.828 9.018 167.02 8.838C167.212 8.646 167.452 8.55 167.74 8.55H168.568V7.398C168.568 7.086 168.67 6.828 168.874 6.624C169.09 6.408 169.354 6.3 169.666 6.3C169.966 6.3 170.218 6.408 170.422 6.624C170.626 6.828 170.728 7.086 170.728 7.398V8.55H172.006C172.294 8.55 172.534 8.646 172.726 8.838C172.918 9.03 173.014 9.27 173.014 9.558C173.014 9.834 172.918 10.068 172.726 10.26C172.534 10.44 172.294 10.53 172.006 10.53H170.728V15.408C170.728 15.66 170.794 15.846 170.926 15.966C171.058 16.074 171.238 16.128 171.466 16.128C171.562 16.128 171.694 16.104 171.862 16.056C172.006 15.996 172.144 15.966 172.276 15.966ZM183.549 12.96C183.537 13.248 183.423 13.482 183.207 13.662C182.991 13.842 182.739 13.932 182.451 13.932H176.511C176.655 14.64 176.985 15.198 177.501 15.606C178.017 16.002 178.599 16.2 179.247 16.2C179.739 16.2 180.123 16.158 180.399 16.074C180.675 15.978 180.891 15.882 181.047 15.786C181.215 15.678 181.329 15.606 181.389 15.57C181.605 15.462 181.809 15.408 182.001 15.408C182.253 15.408 182.469 15.498 182.649 15.678C182.829 15.858 182.919 16.068 182.919 16.308C182.919 16.632 182.751 16.926 182.415 17.19C182.079 17.466 181.629 17.7 181.065 17.892C180.501 18.084 179.931 18.18 179.355 18.18C178.347 18.18 177.465 17.97 176.709 17.55C175.965 17.13 175.389 16.554 174.981 15.822C174.573 15.078 174.369 14.244 174.369 13.32C174.369 12.288 174.585 11.382 175.017 10.602C175.449 9.822 176.019 9.228 176.727 8.82C177.435 8.4 178.191 8.19 178.995 8.19C179.787 8.19 180.531 8.406 181.227 8.838C181.935 9.27 182.499 9.852 182.919 10.584C183.339 11.316 183.549 12.108 183.549 12.96ZM178.995 10.17C177.603 10.17 176.781 10.824 176.529 12.132H181.245V12.006C181.197 11.502 180.951 11.07 180.507 10.71C180.063 10.35 179.559 10.17 178.995 10.17ZM190.355 8.19C190.715 8.19 191.015 8.292 191.255 8.496C191.507 8.7 191.633 8.94 191.633 9.216C191.633 9.588 191.537 9.87 191.345 10.062C191.153 10.242 190.925 10.332 190.661 10.332C190.481 10.332 190.277 10.29 190.049 10.206C190.013 10.194 189.929 10.17 189.797 10.134C189.677 10.098 189.545 10.08 189.401 10.08C189.089 10.08 188.789 10.176 188.501 10.368C188.213 10.56 187.973 10.854 187.781 11.25C187.601 11.634 187.511 12.096 187.511 12.636V16.902C187.511 17.214 187.409 17.478 187.205 17.694C187.001 17.898 186.743 18 186.431 18C186.119 18 185.861 17.898 185.657 17.694C185.453 17.478 185.351 17.214 185.351 16.902V9.468C185.351 9.156 185.453 8.898 185.657 8.694C185.861 8.478 186.119 8.37 186.431 8.37C186.743 8.37 187.001 8.478 187.205 8.694C187.409 8.898 187.511 9.156 187.511 9.468V9.702C187.787 9.21 188.183 8.838 188.699 8.586C189.215 8.322 189.767 8.19 190.355 8.19Z" fill="#3D4F9F"/>
<path d="M8.47656 50.8418C8.35352 51.8945 7.96387 52.708 7.30762 53.2822C6.65592 53.8519 5.78776 54.1367 4.70312 54.1367C3.52734 54.1367 2.58398 53.7152 1.87305 52.8721C1.16667 52.029 0.813477 50.901 0.813477 49.4883V48.5312C0.813477 47.6061 0.977539 46.7926 1.30566 46.0908C1.63835 45.389 2.10775 44.8512 2.71387 44.4775C3.31999 44.0993 4.02181 43.9102 4.81934 43.9102C5.87663 43.9102 6.72428 44.2064 7.3623 44.7988C8.00033 45.3867 8.37174 46.2025 8.47656 47.2461H7.15723C7.04329 46.4531 6.79492 45.8789 6.41211 45.5234C6.03385 45.168 5.50293 44.9902 4.81934 44.9902C3.98079 44.9902 3.32227 45.3001 2.84375 45.9199C2.36979 46.5397 2.13281 47.4215 2.13281 48.5654V49.5293C2.13281 50.6094 2.3584 51.4684 2.80957 52.1064C3.26074 52.7445 3.89193 53.0635 4.70312 53.0635C5.43229 53.0635 5.99056 52.8994 6.37793 52.5713C6.76986 52.2386 7.02962 51.6621 7.15723 50.8418H8.47656ZM15.0626 53.2686C14.5704 53.8473 13.8481 54.1367 12.8956 54.1367C12.1072 54.1367 11.5056 53.9089 11.0909 53.4531C10.6807 52.9928 10.4734 52.3138 10.4688 51.416V46.6035H11.7335V51.3818C11.7335 52.5029 12.1892 53.0635 13.1007 53.0635C14.0668 53.0635 14.7094 52.7035 15.0284 51.9834V46.6035H16.293V54H15.0899L15.0626 53.2686ZM22.2258 50.2402C22.2258 49.0781 22.4924 48.1598 23.0256 47.4854C23.5588 46.8063 24.2743 46.4668 25.1721 46.4668C26.0471 46.4668 26.7375 46.7607 27.2434 47.3486L27.2981 46.6035H28.4602V56.8438H27.1955V53.3164C26.6851 53.8633 26.0061 54.1367 25.1584 54.1367C24.2652 54.1367 23.552 53.7904 23.0188 53.0977C22.4901 52.4004 22.2258 51.4775 22.2258 50.3291V50.2402ZM23.4905 50.3838C23.4905 51.2314 23.6682 51.8968 24.0237 52.3799C24.3837 52.863 24.8668 53.1045 25.4729 53.1045C26.2248 53.1045 26.7991 52.7718 27.1955 52.1064V48.4834C26.7945 47.8317 26.2248 47.5059 25.4866 47.5059C24.8759 47.5059 24.3905 47.7497 24.0305 48.2373C23.6705 48.7204 23.4905 49.4359 23.4905 50.3838ZM35.4769 53.2686C34.9847 53.8473 34.2624 54.1367 33.3099 54.1367C32.5215 54.1367 31.9199 53.9089 31.5052 53.4531C31.095 52.9928 30.8877 52.3138 30.8831 51.416V46.6035H32.1478V51.3818C32.1478 52.5029 32.6035 53.0635 33.515 53.0635C34.4811 53.0635 35.1237 52.7035 35.4427 51.9834V46.6035H36.7073V54H35.5042L35.4769 53.2686ZM40.4291 54H39.1645V46.6035H40.4291V54ZM39.0619 44.6416C39.0619 44.4365 39.1234 44.2633 39.2465 44.1221C39.3741 43.9808 39.5609 43.9102 39.807 43.9102C40.0531 43.9102 40.24 43.9808 40.3676 44.1221C40.4952 44.2633 40.559 44.4365 40.559 44.6416C40.559 44.8467 40.4952 45.0176 40.3676 45.1543C40.24 45.291 40.0531 45.3594 39.807 45.3594C39.5609 45.3594 39.3741 45.291 39.2465 45.1543C39.1234 45.0176 39.0619 44.8467 39.0619 44.6416ZM51.0787 52.0381C51.0787 51.6963 50.9488 51.432 50.689 51.2451C50.4338 51.0537 49.9849 50.8896 49.3423 50.7529C48.7043 50.6162 48.1962 50.4521 47.8179 50.2607C47.4442 50.0693 47.1662 49.8415 46.9839 49.5771C46.8062 49.3128 46.7173 48.9984 46.7173 48.6338C46.7173 48.0277 46.9726 47.515 47.483 47.0957C47.9979 46.6764 48.6542 46.4668 49.4517 46.4668C50.2903 46.4668 50.9693 46.6833 51.4888 47.1162C52.0129 47.5492 52.275 48.1029 52.275 48.7773H51.0035C51.0035 48.431 50.8554 48.1325 50.5591 47.8818C50.2675 47.6312 49.8983 47.5059 49.4517 47.5059C48.9914 47.5059 48.6314 47.6061 48.3716 47.8066C48.1119 48.0072 47.982 48.2692 47.982 48.5928C47.982 48.8981 48.1028 49.1283 48.3443 49.2832C48.5858 49.4382 49.0211 49.5863 49.65 49.7275C50.2834 49.8688 50.7961 50.0374 51.188 50.2334C51.58 50.4294 51.8694 50.6663 52.0562 50.9443C52.2476 51.2178 52.3433 51.5527 52.3433 51.9492C52.3433 52.61 52.079 53.141 51.5504 53.542C51.0217 53.9385 50.3358 54.1367 49.4927 54.1367C48.9003 54.1367 48.3762 54.0319 47.9205 53.8223C47.4647 53.6126 47.107 53.321 46.8472 52.9473C46.592 52.569 46.4644 52.1611 46.4644 51.7236H47.7291C47.7519 52.1475 47.9205 52.4847 48.2349 52.7354C48.5539 52.9814 48.9732 53.1045 49.4927 53.1045C49.9713 53.1045 50.3541 53.0088 50.6412 52.8174C50.9328 52.6214 51.0787 52.3617 51.0787 52.0381ZM54.0758 50.2334C54.0758 49.5088 54.2171 48.8571 54.4996 48.2783C54.7868 47.6995 55.1832 47.2529 55.6891 46.9385C56.1995 46.624 56.7806 46.4668 57.4323 46.4668C58.4394 46.4668 59.2529 46.8154 59.8727 47.5127C60.497 48.21 60.8092 49.1374 60.8092 50.2949V50.3838C60.8092 51.1038 60.6702 51.751 60.3922 52.3252C60.1188 52.8949 59.7246 53.3392 59.2096 53.6582C58.6992 53.9772 58.1113 54.1367 57.4459 54.1367C56.4433 54.1367 55.6299 53.7881 55.0055 53.0908C54.3857 52.3936 54.0758 51.4707 54.0758 50.3223V50.2334ZM55.3473 50.3838C55.3473 51.2041 55.5364 51.8626 55.9147 52.3594C56.2975 52.8561 56.8079 53.1045 57.4459 53.1045C58.0885 53.1045 58.5989 52.8538 58.9772 52.3525C59.3554 51.8467 59.5446 51.1403 59.5446 50.2334C59.5446 49.4222 59.3509 48.766 58.9635 48.2646C58.5807 47.7588 58.0703 47.5059 57.4323 47.5059C56.8079 47.5059 56.3043 47.7542 55.9215 48.251C55.5387 48.7477 55.3473 49.4587 55.3473 50.3838ZM64.1892 54H62.9245V43.5H64.1892V54ZM69.7088 54.1367C68.7062 54.1367 67.8904 53.8086 67.2615 53.1523C66.6326 52.4915 66.3182 51.6097 66.3182 50.5068V50.2744C66.3182 49.5407 66.4572 48.8867 66.7352 48.3125C67.0177 47.7337 67.4096 47.2826 67.9109 46.959C68.4168 46.6309 68.9637 46.4668 69.5516 46.4668C70.5131 46.4668 71.2605 46.7835 71.7937 47.417C72.327 48.0505 72.5936 48.9574 72.5936 50.1377V50.6641H67.5828C67.601 51.3932 67.813 51.9834 68.2186 52.4346C68.6287 52.8812 69.1482 53.1045 69.7771 53.1045C70.2238 53.1045 70.602 53.0133 70.9119 52.8311C71.2218 52.6488 71.493 52.4072 71.7254 52.1064L72.4978 52.708C71.8781 53.6605 70.9484 54.1367 69.7088 54.1367ZM69.5516 47.5059C69.0411 47.5059 68.6128 47.6927 68.2664 48.0664C67.92 48.4355 67.7059 48.9551 67.6238 49.625H71.3289V49.5293C71.2924 48.8867 71.1193 48.39 70.8094 48.0391C70.4995 47.6836 70.0802 47.5059 69.5516 47.5059ZM79.0497 54C78.9768 53.8542 78.9175 53.5944 78.872 53.2207C78.2841 53.8314 77.5822 54.1367 76.7665 54.1367C76.0373 54.1367 75.438 53.9316 74.9686 53.5215C74.5038 53.1068 74.2714 52.5827 74.2714 51.9492C74.2714 51.179 74.563 50.582 75.1464 50.1582C75.7343 49.7298 76.5591 49.5156 77.621 49.5156H78.8514V48.9346C78.8514 48.4925 78.7193 48.1416 78.455 47.8818C78.1906 47.6175 77.801 47.4854 77.286 47.4854C76.8348 47.4854 76.4566 47.5993 76.1513 47.8271C75.8459 48.055 75.6932 48.3307 75.6932 48.6543H74.4218C74.4218 48.2852 74.5516 47.9297 74.8114 47.5879C75.0757 47.2415 75.4312 46.9681 75.8778 46.7676C76.329 46.5671 76.8235 46.4668 77.3612 46.4668C78.2134 46.4668 78.8811 46.681 79.3641 47.1094C79.8472 47.5332 80.0979 48.1188 80.1161 48.8662V52.2705C80.1161 52.9495 80.2027 53.4896 80.3759 53.8906V54H79.0497ZM76.9511 53.0361C77.3475 53.0361 77.7235 52.9336 78.079 52.7285C78.4345 52.5234 78.6919 52.2568 78.8514 51.9287V50.4111H77.8602C76.3108 50.4111 75.536 50.8646 75.536 51.7715C75.536 52.168 75.6682 52.4779 75.9325 52.7012C76.1968 52.9245 76.5363 53.0361 76.9511 53.0361ZM84.2343 44.8125V46.6035H85.6152V47.5811H84.2343V52.168C84.2343 52.4642 84.2959 52.6875 84.4189 52.8379C84.542 52.9837 84.7516 53.0566 85.0478 53.0566C85.1936 53.0566 85.3942 53.0293 85.6494 52.9746V54C85.3167 54.0911 84.9931 54.1367 84.6787 54.1367C84.1136 54.1367 83.6875 53.9658 83.4004 53.624C83.1132 53.2822 82.9697 52.7969 82.9697 52.168V47.5811H81.623V46.6035H82.9697V44.8125H84.2343ZM97.6593 50.3838C97.6593 51.5094 97.4018 52.4163 96.8868 53.1045C96.3719 53.7926 95.6746 54.1367 94.795 54.1367C93.8973 54.1367 93.1909 53.8519 92.6759 53.2822V56.8438H91.4113V46.6035H92.5665L92.6281 47.4238C93.143 46.7858 93.8585 46.4668 94.7745 46.4668C95.6632 46.4668 96.365 46.8018 96.88 47.4717C97.3995 48.1416 97.6593 49.0736 97.6593 50.2676V50.3838ZM96.3947 50.2402C96.3947 49.4062 96.2169 48.7477 95.8615 48.2646C95.506 47.7816 95.0184 47.54 94.3986 47.54C93.6329 47.54 93.0587 47.8796 92.6759 48.5586V52.0928C93.0542 52.7673 93.6329 53.1045 94.4122 53.1045C95.0184 53.1045 95.4991 52.8652 95.8546 52.3867C96.2146 51.9036 96.3947 51.1882 96.3947 50.2402ZM104.259 54C104.186 53.8542 104.127 53.5944 104.081 53.2207C103.493 53.8314 102.792 54.1367 101.976 54.1367C101.247 54.1367 100.647 53.9316 100.178 53.5215C99.7131 53.1068 99.4807 52.5827 99.4807 51.9492C99.4807 51.179 99.7723 50.582 100.356 50.1582C100.944 49.7298 101.768 49.5156 102.83 49.5156H104.061V48.9346C104.061 48.4925 103.929 48.1416 103.664 47.8818C103.4 47.6175 103.01 47.4854 102.495 47.4854C102.044 47.4854 101.666 47.5993 101.361 47.8271C101.055 48.055 100.903 48.3307 100.903 48.6543H99.6311C99.6311 48.2852 99.7609 47.9297 100.021 47.5879C100.285 47.2415 100.64 46.9681 101.087 46.7676C101.538 46.5671 102.033 46.4668 102.571 46.4668C103.423 46.4668 104.09 46.681 104.573 47.1094C105.057 47.5332 105.307 48.1188 105.325 48.8662V52.2705C105.325 52.9495 105.412 53.4896 105.585 53.8906V54H104.259ZM102.16 53.0361C102.557 53.0361 102.933 52.9336 103.288 52.7285C103.644 52.5234 103.901 52.2568 104.061 51.9287V50.4111H103.07C101.52 50.4111 100.745 50.8646 100.745 51.7715C100.745 52.168 100.877 52.4779 101.142 52.7012C101.406 52.9245 101.746 53.0361 102.16 53.0361ZM111.303 47.7383C111.112 47.7064 110.904 47.6904 110.681 47.6904C109.852 47.6904 109.289 48.0436 108.992 48.75V54H107.728V46.6035H108.958L108.979 47.458C109.394 46.7972 109.981 46.4668 110.742 46.4668C110.989 46.4668 111.175 46.4987 111.303 46.5625V47.7383ZM114.95 44.8125V46.6035H116.33V47.5811H114.95V52.168C114.95 52.4642 115.011 52.6875 115.134 52.8379C115.257 52.9837 115.467 53.0566 115.763 53.0566C115.909 53.0566 116.109 53.0293 116.365 52.9746V54C116.032 54.0911 115.708 54.1367 115.394 54.1367C114.829 54.1367 114.403 53.9658 114.116 53.624C113.828 53.2822 113.685 52.7969 113.685 52.168V47.5811H112.338V46.6035H113.685V44.8125H114.95ZM119.608 54H118.343V46.6035H119.608V54ZM118.241 44.6416C118.241 44.4365 118.302 44.2633 118.425 44.1221C118.553 43.9808 118.74 43.9102 118.986 43.9102C119.232 43.9102 119.419 43.9808 119.546 44.1221C119.674 44.2633 119.738 44.4365 119.738 44.6416C119.738 44.8467 119.674 45.0176 119.546 45.1543C119.419 45.291 119.232 45.3594 118.986 45.3594C118.74 45.3594 118.553 45.291 118.425 45.1543C118.302 45.0176 118.241 44.8467 118.241 44.6416ZM125.127 54.1367C124.125 54.1367 123.309 53.8086 122.68 53.1523C122.051 52.4915 121.737 51.6097 121.737 50.5068V50.2744C121.737 49.5407 121.876 48.8867 122.154 48.3125C122.436 47.7337 122.828 47.2826 123.33 46.959C123.835 46.6309 124.382 46.4668 124.97 46.4668C125.932 46.4668 126.679 46.7835 127.212 47.417C127.746 48.0505 128.012 48.9574 128.012 50.1377V50.6641H123.001C123.02 51.3932 123.232 51.9834 123.637 52.4346C124.047 52.8812 124.567 53.1045 125.196 53.1045C125.642 53.1045 126.021 53.0133 126.331 52.8311C126.64 52.6488 126.912 52.4072 127.144 52.1064L127.917 52.708C127.297 53.6605 126.367 54.1367 125.127 54.1367ZM124.97 47.5059C124.46 47.5059 124.031 47.6927 123.685 48.0664C123.339 48.4355 123.125 48.9551 123.043 49.625H126.748V49.5293C126.711 48.8867 126.538 48.39 126.228 48.0391C125.918 47.6836 125.499 47.5059 124.97 47.5059ZM131.098 46.6035L131.139 47.5332C131.704 46.8223 132.443 46.4668 133.354 46.4668C134.917 46.4668 135.706 47.3486 135.719 49.1123V54H134.455V49.1055C134.45 48.5723 134.327 48.1781 134.086 47.9229C133.849 47.6676 133.477 47.54 132.971 47.54C132.561 47.54 132.201 47.6494 131.891 47.8682C131.581 48.0869 131.34 48.374 131.167 48.7295V54H129.902V46.6035H131.098ZM137.739 50.2402C137.739 49.1055 138.008 48.194 138.546 47.5059C139.083 46.8132 139.787 46.4668 140.658 46.4668C141.524 46.4668 142.21 46.763 142.716 47.3555V43.5H143.98V54H142.818L142.757 53.207C142.251 53.8268 141.547 54.1367 140.644 54.1367C139.787 54.1367 139.088 53.7858 138.546 53.084C138.008 52.3822 137.739 51.4661 137.739 50.3359V50.2402ZM139.004 50.3838C139.004 51.2223 139.177 51.8786 139.523 52.3525C139.869 52.8265 140.348 53.0635 140.959 53.0635C141.761 53.0635 142.346 52.7035 142.716 51.9834V48.5859C142.337 47.8887 141.756 47.54 140.972 47.54C140.353 47.54 139.869 47.7793 139.523 48.2578C139.177 48.7363 139.004 49.445 139.004 50.3838ZM146.034 50.2334C146.034 49.5088 146.175 48.8571 146.458 48.2783C146.745 47.6995 147.141 47.2529 147.647 46.9385C148.158 46.624 148.739 46.4668 149.39 46.4668C150.398 46.4668 151.211 46.8154 151.831 47.5127C152.455 48.21 152.767 49.1374 152.767 50.2949V50.3838C152.767 51.1038 152.628 51.751 152.35 52.3252C152.077 52.8949 151.683 53.3392 151.168 53.6582C150.657 53.9772 150.069 54.1367 149.404 54.1367C148.401 54.1367 147.588 53.7881 146.964 53.0908C146.344 52.3936 146.034 51.4707 146.034 50.3223V50.2334ZM147.305 50.3838C147.305 51.2041 147.495 51.8626 147.873 52.3594C148.256 52.8561 148.766 53.1045 149.404 53.1045C150.047 53.1045 150.557 52.8538 150.935 52.3525C151.314 51.8467 151.503 51.1403 151.503 50.2334C151.503 49.4222 151.309 48.766 150.922 48.2646C150.539 47.7588 150.028 47.5059 149.39 47.5059C148.766 47.5059 148.262 47.7542 147.88 48.251C147.497 48.7477 147.305 49.4587 147.305 50.3838ZM163.232 53.2686C162.74 53.8473 162.018 54.1367 161.065 54.1367C160.277 54.1367 159.675 53.9089 159.261 53.4531C158.851 52.9928 158.643 52.3138 158.639 51.416V46.6035H159.903V51.3818C159.903 52.5029 160.359 53.0635 161.27 53.0635C162.237 53.0635 162.879 52.7035 163.198 51.9834V46.6035H164.463V54H163.26L163.232 53.2686ZM170.386 47.7383C170.194 47.7064 169.987 47.6904 169.764 47.6904C168.934 47.6904 168.371 48.0436 168.075 48.75V54H166.811V46.6035H168.041L168.062 47.458C168.476 46.7972 169.064 46.4668 169.825 46.4668C170.071 46.4668 170.258 46.4987 170.386 46.5625V47.7383ZM178.236 50.3838C178.236 51.514 177.977 52.4232 177.457 53.1113C176.938 53.7949 176.24 54.1367 175.365 54.1367C174.431 54.1367 173.709 53.8063 173.198 53.1455L173.137 54H171.975V43.5H173.239V47.417C173.75 46.7835 174.454 46.4668 175.352 46.4668C176.249 46.4668 176.954 46.8063 177.464 47.4854C177.979 48.1644 178.236 49.0941 178.236 50.2744V50.3838ZM176.972 50.2402C176.972 49.3789 176.805 48.7135 176.473 48.2441C176.14 47.7747 175.662 47.54 175.037 47.54C174.203 47.54 173.604 47.9274 173.239 48.7021V51.9014C173.627 52.6761 174.231 53.0635 175.051 53.0635C175.657 53.0635 176.129 52.8288 176.466 52.3594C176.803 51.89 176.972 51.1836 176.972 50.2402ZM184.822 54C184.75 53.8542 184.69 53.5944 184.645 53.2207C184.057 53.8314 183.355 54.1367 182.539 54.1367C181.81 54.1367 181.211 53.9316 180.741 53.5215C180.277 53.1068 180.044 52.5827 180.044 51.9492C180.044 51.179 180.336 50.582 180.919 50.1582C181.507 49.7298 182.332 49.5156 183.394 49.5156H184.624V48.9346C184.624 48.4925 184.492 48.1416 184.228 47.8818C183.963 47.6175 183.574 47.4854 183.059 47.4854C182.608 47.4854 182.229 47.5993 181.924 47.8271C181.619 48.055 181.466 48.3307 181.466 48.6543H180.194C180.194 48.2852 180.324 47.9297 180.584 47.5879C180.848 47.2415 181.204 46.9681 181.651 46.7676C182.102 46.5671 182.596 46.4668 183.134 46.4668C183.986 46.4668 184.654 46.681 185.137 47.1094C185.62 47.5332 185.871 48.1188 185.889 48.8662V52.2705C185.889 52.9495 185.975 53.4896 186.149 53.8906V54H184.822ZM182.724 53.0361C183.12 53.0361 183.496 52.9336 183.852 52.7285C184.207 52.5234 184.465 52.2568 184.624 51.9287V50.4111H183.633C182.083 50.4111 181.309 50.8646 181.309 51.7715C181.309 52.168 181.441 52.4779 181.705 52.7012C181.97 52.9245 182.309 53.0361 182.724 53.0361ZM189.488 46.6035L189.529 47.5332C190.094 46.8223 190.832 46.4668 191.743 46.4668C193.307 46.4668 194.095 47.3486 194.109 49.1123V54H192.844V49.1055C192.839 48.5723 192.716 48.1781 192.475 47.9229C192.238 47.6676 191.866 47.54 191.361 47.54C190.95 47.54 190.59 47.6494 190.281 47.8682C189.971 48.0869 189.729 48.374 189.556 48.7295V54H188.291V46.6035H189.488ZM197.81 54H196.545V46.6035H197.81V54ZM196.443 44.6416C196.443 44.4365 196.504 44.2633 196.627 44.1221C196.755 43.9808 196.942 43.9102 197.188 43.9102C197.434 43.9102 197.621 43.9808 197.748 44.1221C197.876 44.2633 197.94 44.4365 197.94 44.6416C197.94 44.8467 197.876 45.0176 197.748 45.1543C197.621 45.291 197.434 45.3594 197.188 45.3594C196.942 45.3594 196.755 45.291 196.627 45.1543C196.504 45.0176 196.443 44.8467 196.443 44.6416ZM201.976 44.8125V46.6035H203.357V47.5811H201.976V52.168C201.976 52.4642 202.038 52.6875 202.161 52.8379C202.284 52.9837 202.493 53.0566 202.789 53.0566C202.935 53.0566 203.136 53.0293 203.391 52.9746V54C203.058 54.0911 202.735 54.1367 202.42 54.1367C201.855 54.1367 201.429 53.9658 201.142 53.624C200.855 53.2822 200.711 52.7969 200.711 52.168V47.5811H199.365V46.6035H200.711V44.8125H201.976ZM209.827 54C209.754 53.8542 209.694 53.5944 209.649 53.2207C209.061 53.8314 208.359 54.1367 207.543 54.1367C206.814 54.1367 206.215 53.9316 205.746 53.5215C205.281 53.1068 205.048 52.5827 205.048 51.9492C205.048 51.179 205.34 50.582 205.923 50.1582C206.511 49.7298 207.336 49.5156 208.398 49.5156H209.628V48.9346C209.628 48.4925 209.496 48.1416 209.232 47.8818C208.968 47.6175 208.578 47.4854 208.063 47.4854C207.612 47.4854 207.234 47.5993 206.928 47.8271C206.623 48.055 206.47 48.3307 206.47 48.6543H205.199C205.199 48.2852 205.329 47.9297 205.588 47.5879C205.853 47.2415 206.208 46.9681 206.655 46.7676C207.106 46.5671 207.6 46.4668 208.138 46.4668C208.99 46.4668 209.658 46.681 210.141 47.1094C210.624 47.5332 210.875 48.1188 210.893 48.8662V52.2705C210.893 52.9495 210.98 53.4896 211.153 53.8906V54H209.827ZM207.728 53.0361C208.124 53.0361 208.5 52.9336 208.856 52.7285C209.211 52.5234 209.469 52.2568 209.628 51.9287V50.4111H208.637C207.088 50.4111 206.313 50.8646 206.313 51.7715C206.313 52.168 206.445 52.4779 206.709 52.7012C206.974 52.9245 207.313 53.0361 207.728 53.0361ZM217.602 52.0381C217.602 51.6963 217.472 51.432 217.212 51.2451C216.957 51.0537 216.508 50.8896 215.866 50.7529C215.228 50.6162 214.72 50.4521 214.341 50.2607C213.968 50.0693 213.69 49.8415 213.507 49.5771C213.33 49.3128 213.241 48.9984 213.241 48.6338C213.241 48.0277 213.496 47.515 214.006 47.0957C214.521 46.6764 215.178 46.4668 215.975 46.4668C216.814 46.4668 217.493 46.6833 218.012 47.1162C218.536 47.5492 218.798 48.1029 218.798 48.7773H217.527C217.527 48.431 217.379 48.1325 217.083 47.8818C216.791 47.6312 216.422 47.5059 215.975 47.5059C215.515 47.5059 215.155 47.6061 214.895 47.8066C214.635 48.0072 214.505 48.2692 214.505 48.5928C214.505 48.8981 214.626 49.1283 214.868 49.2832C215.109 49.4382 215.544 49.5863 216.173 49.7275C216.807 49.8688 217.32 50.0374 217.711 50.2334C218.103 50.4294 218.393 50.6663 218.58 50.9443C218.771 51.2178 218.867 51.5527 218.867 51.9492C218.867 52.61 218.602 53.141 218.074 53.542C217.545 53.9385 216.859 54.1367 216.016 54.1367C215.424 54.1367 214.9 54.0319 214.444 53.8223C213.988 53.6126 213.63 53.321 213.371 52.9473C213.115 52.569 212.988 52.1611 212.988 51.7236H214.253C214.275 52.1475 214.444 52.4847 214.758 52.7354C215.077 52.9814 215.497 53.1045 216.016 53.1045C216.495 53.1045 216.878 53.0088 217.165 52.8174C217.456 52.6214 217.602 52.3617 217.602 52.0381ZM220.962 53.3369C220.962 53.1182 221.025 52.9359 221.153 52.79C221.285 52.6442 221.481 52.5713 221.741 52.5713C222.001 52.5713 222.197 52.6442 222.329 52.79C222.465 52.9359 222.534 53.1182 222.534 53.3369C222.534 53.5465 222.465 53.722 222.329 53.8633C222.197 54.0046 222.001 54.0752 221.741 54.0752C221.481 54.0752 221.285 54.0046 221.153 53.8633C221.025 53.722 220.962 53.5465 220.962 53.3369ZM234.762 49.3994H230.449V52.9268H235.46V54H229.137V44.0469H235.391V45.127H230.449V48.3262H234.762V49.3994ZM241.759 53.2686C241.266 53.8473 240.544 54.1367 239.592 54.1367C238.803 54.1367 238.202 53.9089 237.787 53.4531C237.377 52.9928 237.169 52.3138 237.165 51.416V46.6035H238.43V51.3818C238.43 52.5029 238.885 53.0635 239.797 53.0635C240.763 53.0635 241.405 52.7035 241.724 51.9834V46.6035H242.989V54H241.786L241.759 53.2686ZM246.526 46.6035L246.561 47.4238C247.103 46.7858 247.834 46.4668 248.755 46.4668C249.789 46.4668 250.493 46.8633 250.867 47.6562C251.113 47.3008 251.432 47.0137 251.824 46.7949C252.221 46.5762 252.688 46.4668 253.226 46.4668C254.848 46.4668 255.673 47.3258 255.7 49.0439V54H254.436V49.1191C254.436 48.5905 254.315 48.1963 254.073 47.9365C253.832 47.6722 253.426 47.54 252.856 47.54C252.387 47.54 251.997 47.6813 251.687 47.9639C251.378 48.2419 251.198 48.6178 251.147 49.0918V54H249.876V49.1533C249.876 48.0778 249.35 47.54 248.297 47.54C247.467 47.54 246.9 47.8932 246.595 48.5996V54H245.33V46.6035H246.526ZM266.493 54C266.42 53.8542 266.361 53.5944 266.316 53.2207C265.728 53.8314 265.026 54.1367 264.21 54.1367C263.481 54.1367 262.882 53.9316 262.412 53.5215C261.947 53.1068 261.715 52.5827 261.715 51.9492C261.715 51.179 262.007 50.582 262.59 50.1582C263.178 49.7298 264.003 49.5156 265.065 49.5156H266.295V48.9346C266.295 48.4925 266.163 48.1416 265.899 47.8818C265.634 47.6175 265.245 47.4854 264.73 47.4854C264.278 47.4854 263.9 47.5993 263.595 47.8271C263.29 48.055 263.137 48.3307 263.137 48.6543H261.865C261.865 48.2852 261.995 47.9297 262.255 47.5879C262.519 47.2415 262.875 46.9681 263.321 46.7676C263.773 46.5671 264.267 46.4668 264.805 46.4668C265.657 46.4668 266.325 46.681 266.808 47.1094C267.291 47.5332 267.541 48.1188 267.56 48.8662V52.2705C267.56 52.9495 267.646 53.4896 267.819 53.8906V54H266.493ZM264.395 53.0361C264.791 53.0361 265.167 52.9336 265.523 52.7285C265.878 52.5234 266.136 52.2568 266.295 51.9287V50.4111H265.304C263.754 50.4111 262.98 50.8646 262.98 51.7715C262.98 52.168 263.112 52.4779 263.376 52.7012C263.64 52.9245 263.98 53.0361 264.395 53.0361ZM276.21 50.3838C276.21 51.5094 275.953 52.4163 275.438 53.1045C274.923 53.7926 274.225 54.1367 273.346 54.1367C272.448 54.1367 271.742 53.8519 271.227 53.2822V56.8438H269.962V46.6035H271.117L271.179 47.4238C271.694 46.7858 272.409 46.4668 273.325 46.4668C274.214 46.4668 274.916 46.8018 275.431 47.4717C275.95 48.1416 276.21 49.0736 276.21 50.2676V50.3838ZM274.945 50.2402C274.945 49.4062 274.768 48.7477 274.412 48.2646C274.057 47.7816 273.569 47.54 272.949 47.54C272.184 47.54 271.61 47.8796 271.227 48.5586V52.0928C271.605 52.7673 272.184 53.1045 272.963 53.1045C273.569 53.1045 274.05 52.8652 274.405 52.3867C274.765 51.9036 274.945 51.1882 274.945 50.2402ZM281.313 54.1367C280.31 54.1367 279.494 53.8086 278.866 53.1523C278.237 52.4915 277.922 51.6097 277.922 50.5068V50.2744C277.922 49.5407 278.061 48.8867 278.339 48.3125C278.622 47.7337 279.014 47.2826 279.515 46.959C280.021 46.6309 280.568 46.4668 281.156 46.4668C282.117 46.4668 282.865 46.7835 283.398 47.417C283.931 48.0505 284.198 48.9574 284.198 50.1377V50.6641H279.187C279.205 51.3932 279.417 51.9834 279.823 52.4346C280.233 52.8812 280.752 53.1045 281.381 53.1045C281.828 53.1045 282.206 53.0133 282.516 52.8311C282.826 52.6488 283.097 52.4072 283.329 52.1064L284.102 52.708C283.482 53.6605 282.552 54.1367 281.313 54.1367ZM281.156 47.5059C280.645 47.5059 280.217 47.6927 279.87 48.0664C279.524 48.4355 279.31 48.9551 279.228 49.625H282.933V49.5293C282.896 48.8867 282.723 48.39 282.413 48.0391C282.103 47.6836 281.684 47.5059 281.156 47.5059ZM289.662 47.7383C289.471 47.7064 289.264 47.6904 289.04 47.6904C288.211 47.6904 287.648 48.0436 287.352 48.75V54H286.087V46.6035H287.318L287.338 47.458C287.753 46.7972 288.341 46.4668 289.102 46.4668C289.348 46.4668 289.535 46.4987 289.662 46.5625V47.7383ZM292.625 54H291.361V46.6035H292.625V54ZM291.258 44.6416C291.258 44.4365 291.32 44.2633 291.443 44.1221C291.57 43.9808 291.757 43.9102 292.003 43.9102C292.249 43.9102 292.436 43.9808 292.564 44.1221C292.692 44.2633 292.755 44.4365 292.755 44.6416C292.755 44.8467 292.692 45.0176 292.564 45.1543C292.436 45.291 292.249 45.3594 292.003 45.3594C291.757 45.3594 291.57 45.291 291.443 45.1543C291.32 45.0176 291.258 44.8467 291.258 44.6416ZM298.651 47.7383C298.46 47.7064 298.252 47.6904 298.029 47.6904C297.199 47.6904 296.637 48.0436 296.34 48.75V54H295.076V46.6035H296.306L296.327 47.458C296.741 46.7972 297.329 46.4668 298.09 46.4668C298.336 46.4668 298.523 46.4987 298.651 46.5625V47.7383ZM301.614 54H300.349V46.6035H301.614V54ZM300.247 44.6416C300.247 44.4365 300.308 44.2633 300.431 44.1221C300.559 43.9808 300.746 43.9102 300.992 43.9102C301.238 43.9102 301.425 43.9808 301.552 44.1221C301.68 44.2633 301.744 44.4365 301.744 44.6416C301.744 44.8467 301.68 45.0176 301.552 45.1543C301.425 45.291 301.238 45.3594 300.992 45.3594C300.746 45.3594 300.559 45.291 300.431 45.1543C300.308 45.0176 300.247 44.8467 300.247 44.6416ZM2.33105 81H1.06641V73.6035H2.33105V81ZM0.963867 71.6416C0.963867 71.4365 1.02539 71.2633 1.14844 71.1221C1.27604 70.9808 1.46289 70.9102 1.70898 70.9102C1.95508 70.9102 2.14193 70.9808 2.26953 71.1221C2.39714 71.2633 2.46094 71.4365 2.46094 71.6416C2.46094 71.8467 2.39714 72.0176 2.26953 72.1543C2.14193 72.291 1.95508 72.3594 1.70898 72.3594C1.46289 72.3594 1.27604 72.291 1.14844 72.1543C1.02539 72.0176 0.963867 71.8467 0.963867 71.6416ZM5.97762 73.6035L6.01863 74.5332C6.58374 73.8223 7.32202 73.4668 8.23348 73.4668C9.79663 73.4668 10.585 74.3486 10.5987 76.1123V81H9.33406V76.1055C9.32951 75.5723 9.20646 75.1781 8.96492 74.9229C8.72794 74.6676 8.35652 74.54 7.85066 74.54C7.44051 74.54 7.08048 74.6494 6.77059 74.8682C6.46069 75.0869 6.21915 75.374 6.04598 75.7295V81H4.78133V73.6035H5.97762ZM12.6183 77.2402C12.6183 76.1055 12.8872 75.194 13.425 74.5059C13.9627 73.8132 14.6668 73.4668 15.5373 73.4668C16.4032 73.4668 17.089 73.763 17.5949 74.3555V70.5H18.8595V81H17.6974L17.6359 80.207C17.13 80.8268 16.4259 81.1367 15.5236 81.1367C14.6668 81.1367 13.9673 80.7858 13.425 80.084C12.8872 79.3822 12.6183 78.4661 12.6183 77.3359V77.2402ZM13.883 77.3838C13.883 78.2223 14.0561 78.8786 14.4025 79.3525C14.7489 79.8265 15.2274 80.0635 15.838 80.0635C16.6401 80.0635 17.2257 79.7035 17.5949 78.9834V75.5859C17.2166 74.8887 16.6356 74.54 15.8517 74.54C15.2319 74.54 14.7489 74.7793 14.4025 75.2578C14.0561 75.7363 13.883 76.445 13.883 77.3838ZM20.9133 77.2334C20.9133 76.5088 21.0546 75.8571 21.3371 75.2783C21.6243 74.6995 22.0207 74.2529 22.5266 73.9385C23.037 73.624 23.6181 73.4668 24.2698 73.4668C25.2769 73.4668 26.0904 73.8154 26.7102 74.5127C27.3345 75.21 27.6467 76.1374 27.6467 77.2949V77.3838C27.6467 78.1038 27.5077 78.751 27.2297 79.3252C26.9563 79.8949 26.5621 80.3392 26.0471 80.6582C25.5367 80.9772 24.9488 81.1367 24.2834 81.1367C23.2808 81.1367 22.4674 80.7881 21.843 80.0908C21.2232 79.3936 20.9133 78.4707 20.9133 77.3223V77.2334ZM22.1848 77.3838C22.1848 78.2041 22.3739 78.8626 22.7522 79.3594C23.135 79.8561 23.6454 80.1045 24.2834 80.1045C24.926 80.1045 25.4364 79.8538 25.8147 79.3525C26.1929 78.8467 26.3821 78.1403 26.3821 77.2334C26.3821 76.4222 26.1884 75.766 25.801 75.2646C25.4182 74.7588 24.9078 74.5059 24.2698 74.5059C23.6454 74.5059 23.1418 74.7542 22.759 75.251C22.3762 75.7477 22.1848 76.4587 22.1848 77.3838ZM32.6195 80.1045C33.0706 80.1045 33.4648 79.9678 33.8021 79.6943C34.1393 79.4209 34.3262 79.0791 34.3626 78.6689H35.5589C35.5361 79.0928 35.3903 79.4961 35.1214 79.8789C34.8525 80.2617 34.4925 80.5671 34.0413 80.7949C33.5947 81.0228 33.1208 81.1367 32.6195 81.1367C31.6123 81.1367 30.8102 80.8018 30.2132 80.1318C29.6208 79.4574 29.3245 78.5368 29.3245 77.3701V77.1582C29.3245 76.4382 29.4567 75.7979 29.721 75.2373C29.9853 74.6768 30.3636 74.2415 30.8558 73.9316C31.3525 73.6217 31.9381 73.4668 32.6126 73.4668C33.442 73.4668 34.1302 73.7152 34.6771 74.2119C35.2285 74.7087 35.5224 75.3535 35.5589 76.1465H34.3626C34.3262 75.668 34.1439 75.276 33.8157 74.9707C33.4922 74.6608 33.0911 74.5059 32.6126 74.5059C31.97 74.5059 31.471 74.7383 31.1155 75.2031C30.7646 75.6634 30.5892 76.3311 30.5892 77.2061V77.4453C30.5892 78.2975 30.7646 78.9538 31.1155 79.4141C31.4665 79.8743 31.9678 80.1045 32.6195 80.1045ZM39.1166 71.8125V73.6035H40.4975V74.5811H39.1166V79.168C39.1166 79.4642 39.1781 79.6875 39.3012 79.8379C39.4242 79.9837 39.6339 80.0566 39.9301 80.0566C40.0759 80.0566 40.2764 80.0293 40.5316 79.9746V81C40.199 81.0911 39.8754 81.1367 39.5609 81.1367C38.9958 81.1367 38.5697 80.9658 38.2826 80.624C37.9955 80.2822 37.852 79.7969 37.852 79.168V74.5811H36.5053V73.6035H37.852V71.8125H39.1166ZM46.9673 80.2686C46.4751 80.8473 45.7527 81.1367 44.8003 81.1367C44.0119 81.1367 43.4103 80.9089 42.9956 80.4531C42.5854 79.9928 42.3781 79.3138 42.3735 78.416V73.6035H43.6382V78.3818C43.6382 79.5029 44.0939 80.0635 45.0054 80.0635C45.9715 80.0635 46.6141 79.7035 46.9331 78.9834V73.6035H48.1977V81H46.9946L46.9673 80.2686ZM51.7349 73.6035L51.7691 74.4238C52.3114 73.7858 53.0429 73.4668 53.9634 73.4668C54.9979 73.4668 55.702 73.8633 56.0757 74.6562C56.3218 74.3008 56.6408 74.0137 57.0328 73.7949C57.4293 73.5762 57.8964 73.4668 58.4341 73.4668C60.0565 73.4668 60.8814 74.3258 60.9088 76.0439V81H59.6441V76.1191C59.6441 75.5905 59.5233 75.1963 59.2818 74.9365C59.0403 74.6722 58.6347 74.54 58.065 74.54C57.5956 74.54 57.206 74.6813 56.8961 74.9639C56.5862 75.2419 56.4061 75.6178 56.356 76.0918V81H55.0845V76.1533C55.0845 75.0778 54.5582 74.54 53.5054 74.54C52.676 74.54 52.1086 74.8932 51.8033 75.5996V81H50.5386V73.6035H51.7349ZM70.2048 81.1367C69.2022 81.1367 68.3864 80.8086 67.7575 80.1523C67.1286 79.4915 66.8142 78.6097 66.8142 77.5068V77.2744C66.8142 76.5407 66.9532 75.8867 67.2312 75.3125C67.5137 74.7337 67.9056 74.2826 68.407 73.959C68.9128 73.6309 69.4597 73.4668 70.0476 73.4668C71.0092 73.4668 71.7566 73.7835 72.2898 74.417C72.823 75.0505 73.0896 75.9574 73.0896 77.1377V77.6641H68.0788C68.0971 78.3932 68.309 78.9834 68.7146 79.4346C69.1247 79.8812 69.6443 80.1045 70.2732 80.1045C70.7198 80.1045 71.098 80.0133 71.4079 79.8311C71.7178 79.6488 71.989 79.4072 72.2214 79.1064L72.9939 79.708C72.3741 80.6605 71.4444 81.1367 70.2048 81.1367ZM70.0476 74.5059C69.5372 74.5059 69.1088 74.6927 68.7624 75.0664C68.4161 75.4355 68.2019 75.9551 68.1198 76.625H71.8249V76.5293C71.7885 75.8867 71.6153 75.39 71.3054 75.0391C70.9955 74.6836 70.5762 74.5059 70.0476 74.5059ZM79.5457 80.2686C79.0535 80.8473 78.3312 81.1367 77.3787 81.1367C76.5903 81.1367 75.9887 80.9089 75.574 80.4531C75.1639 79.9928 74.9565 79.3138 74.952 78.416V73.6035H76.2166V78.3818C76.2166 79.5029 76.6723 80.0635 77.5838 80.0635C78.5499 80.0635 79.1925 79.7035 79.5115 78.9834V73.6035H80.7762V81H79.573L79.5457 80.2686ZM83.0829 82.9824L82.3651 82.4902C82.7935 81.8932 83.0168 81.278 83.035 80.6445V79.5029H84.2723V80.4941C84.2723 80.9544 84.1584 81.4147 83.9305 81.875C83.7072 82.3353 83.4247 82.7044 83.0829 82.9824ZM91.4493 74.499C92.0098 73.8109 92.739 73.4668 93.6368 73.4668C95.1999 73.4668 95.9883 74.3486 96.002 76.1123V81H94.7373V76.1055C94.7328 75.5723 94.6097 75.1781 94.3682 74.9229C94.1312 74.6676 93.7598 74.54 93.2539 74.54C92.8438 74.54 92.4838 74.6494 92.1739 74.8682C91.864 75.0869 91.6224 75.374 91.4493 75.7295V81H90.1846V70.5H91.4493V74.499ZM97.9806 77.2334C97.9806 76.5088 98.1219 75.8571 98.4044 75.2783C98.6915 74.6995 99.088 74.2529 99.5939 73.9385C100.104 73.624 100.685 73.4668 101.337 73.4668C102.344 73.4668 103.158 73.8154 103.777 74.5127C104.402 75.21 104.714 76.1374 104.714 77.2949V77.3838C104.714 78.1038 104.575 78.751 104.297 79.3252C104.024 79.8949 103.629 80.3392 103.114 80.6582C102.604 80.9772 102.016 81.1367 101.351 81.1367C100.348 81.1367 99.5346 80.7881 98.9103 80.0908C98.2905 79.3936 97.9806 78.4707 97.9806 77.3223V77.2334ZM99.2521 77.3838C99.2521 78.2041 99.4412 78.8626 99.8195 79.3594C100.202 79.8561 100.713 80.1045 101.351 80.1045C101.993 80.1045 102.504 79.8538 102.882 79.3525C103.26 78.8467 103.449 78.1403 103.449 77.2334C103.449 76.4222 103.256 75.766 102.868 75.2646C102.485 74.7588 101.975 74.5059 101.337 74.5059C100.713 74.5059 100.209 74.7542 99.8263 75.251C99.4435 75.7477 99.2521 76.4587 99.2521 77.3838ZM107.909 73.6035L107.944 74.4238C108.486 73.7858 109.217 73.4668 110.138 73.4668C111.172 73.4668 111.877 73.8633 112.25 74.6562C112.496 74.3008 112.815 74.0137 113.207 73.7949C113.604 73.5762 114.071 73.4668 114.609 73.4668C116.231 73.4668 117.056 74.3258 117.083 76.0439V81H115.819V76.1191C115.819 75.5905 115.698 75.1963 115.456 74.9365C115.215 74.6722 114.809 74.54 114.239 74.54C113.77 74.54 113.38 74.6813 113.071 74.9639C112.761 75.2419 112.581 75.6178 112.53 76.0918V81H111.259V76.1533C111.259 75.0778 110.733 74.54 109.68 74.54C108.85 74.54 108.283 74.8932 107.978 75.5996V81H106.713V73.6035H107.909ZM122.487 81.1367C121.484 81.1367 120.668 80.8086 120.039 80.1523C119.41 79.4915 119.096 78.6097 119.096 77.5068V77.2744C119.096 76.5407 119.235 75.8867 119.513 75.3125C119.796 74.7337 120.187 74.2826 120.689 73.959C121.195 73.6309 121.741 73.4668 122.329 73.4668C123.291 73.4668 124.038 73.7835 124.572 74.417C125.105 75.0505 125.371 75.9574 125.371 77.1377V77.6641H120.361C120.379 78.3932 120.591 78.9834 120.996 79.4346C121.407 79.8812 121.926 80.1045 122.555 80.1045C123.002 80.1045 123.38 80.0133 123.69 79.8311C124 79.6488 124.271 79.4072 124.503 79.1064L125.276 79.708C124.656 80.6605 123.726 81.1367 122.487 81.1367ZM122.329 74.5059C121.819 74.5059 121.391 74.6927 121.044 75.0664C120.698 75.4355 120.484 75.9551 120.402 76.625H124.107V76.5293C124.07 75.8867 123.897 75.39 123.587 75.0391C123.277 74.6836 122.858 74.5059 122.329 74.5059ZM130.836 74.7383C130.645 74.7064 130.438 74.6904 130.214 74.6904C129.385 74.6904 128.822 75.0436 128.526 75.75V81H127.261V73.6035H128.492L128.512 74.458C128.927 73.7972 129.515 73.4668 130.276 73.4668C130.522 73.4668 130.709 73.4987 130.836 73.5625V74.7383ZM131.954 77.2334C131.954 76.5088 132.095 75.8571 132.377 75.2783C132.664 74.6995 133.061 74.2529 133.567 73.9385C134.077 73.624 134.658 73.4668 135.31 73.4668C136.317 73.4668 137.131 73.8154 137.75 74.5127C138.375 75.21 138.687 76.1374 138.687 77.2949V77.3838C138.687 78.1038 138.548 78.751 138.27 79.3252C137.997 79.8949 137.602 80.3392 137.087 80.6582C136.577 80.9772 135.989 81.1367 135.324 81.1367C134.321 81.1367 133.508 80.7881 132.883 80.0908C132.263 79.3936 131.954 78.4707 131.954 77.3223V77.2334ZM133.225 77.3838C133.225 78.2041 133.414 78.8626 133.792 79.3594C134.175 79.8561 134.686 80.1045 135.324 80.1045C135.966 80.1045 136.477 79.8538 136.855 79.3525C137.233 78.8467 137.422 78.1403 137.422 77.2334C137.422 76.4222 137.229 75.766 136.841 75.2646C136.458 74.7588 135.948 74.5059 135.31 74.5059C134.686 74.5059 134.182 74.7542 133.799 75.251C133.416 75.7477 133.225 76.4587 133.225 77.3838ZM149.152 81C149.079 80.8542 149.02 80.5944 148.974 80.2207C148.386 80.8314 147.684 81.1367 146.869 81.1367C146.14 81.1367 145.54 80.9316 145.071 80.5215C144.606 80.1068 144.374 79.5827 144.374 78.9492C144.374 78.179 144.665 77.582 145.249 77.1582C145.837 76.7298 146.661 76.5156 147.723 76.5156H148.954V75.9346C148.954 75.4925 148.822 75.1416 148.557 74.8818C148.293 74.6175 147.903 74.4854 147.388 74.4854C146.937 74.4854 146.559 74.5993 146.254 74.8271C145.948 75.055 145.796 75.3307 145.796 75.6543H144.524C144.524 75.2852 144.654 74.9297 144.914 74.5879C145.178 74.2415 145.533 73.9681 145.98 73.7676C146.431 73.5671 146.926 73.4668 147.463 73.4668C148.316 73.4668 148.983 73.681 149.466 74.1094C149.949 74.5332 150.2 75.1188 150.218 75.8662V79.2705C150.218 79.9495 150.305 80.4896 150.478 80.8906V81H149.152ZM147.053 80.0361C147.45 80.0361 147.826 79.9336 148.181 79.7285C148.537 79.5234 148.794 79.2568 148.954 78.9287V77.4111H147.962C146.413 77.4111 145.638 77.8646 145.638 78.7715C145.638 79.168 145.77 79.4779 146.035 79.7012C146.299 79.9245 146.639 80.0361 147.053 80.0361ZM153.995 81H152.73V70.5H153.995V81ZM158.161 71.8125V73.6035H159.542V74.5811H158.161V79.168C158.161 79.4642 158.222 79.6875 158.345 79.8379C158.469 79.9837 158.678 80.0566 158.974 80.0566C159.12 80.0566 159.321 80.0293 159.576 79.9746V81C159.243 81.0911 158.92 81.1367 158.605 81.1367C158.04 81.1367 157.614 80.9658 157.327 80.624C157.04 80.2822 156.896 79.7969 156.896 79.168V74.5811H155.55V73.6035H156.896V71.8125H158.161ZM164.514 81.1367C163.512 81.1367 162.696 80.8086 162.067 80.1523C161.438 79.4915 161.124 78.6097 161.124 77.5068V77.2744C161.124 76.5407 161.263 75.8867 161.541 75.3125C161.823 74.7337 162.215 74.2826 162.717 73.959C163.223 73.6309 163.769 73.4668 164.357 73.4668C165.319 73.4668 166.066 73.7835 166.599 74.417C167.133 75.0505 167.399 75.9574 167.399 77.1377V77.6641H162.389C162.407 78.3932 162.619 78.9834 163.024 79.4346C163.434 79.8812 163.954 80.1045 164.583 80.1045C165.029 80.1045 165.408 80.0133 165.718 79.8311C166.028 79.6488 166.299 79.4072 166.531 79.1064L167.304 79.708C166.684 80.6605 165.754 81.1367 164.514 81.1367ZM164.357 74.5059C163.847 74.5059 163.418 74.6927 163.072 75.0664C162.726 75.4355 162.512 75.9551 162.43 76.625H166.135V76.5293C166.098 75.8867 165.925 75.39 165.615 75.0391C165.305 74.6836 164.886 74.5059 164.357 74.5059ZM172.864 74.7383C172.673 74.7064 172.465 74.6904 172.242 74.6904C171.413 74.6904 170.85 75.0436 170.554 75.75V81H169.289V73.6035H170.519L170.54 74.458C170.955 73.7972 171.543 73.4668 172.304 73.4668C172.55 73.4668 172.737 73.4987 172.864 73.5625V74.7383ZM179.02 80.2686C178.527 80.8473 177.805 81.1367 176.853 81.1367C176.064 81.1367 175.463 80.9089 175.048 80.4531C174.638 79.9928 174.43 79.3138 174.426 78.416V73.6035H175.69V78.3818C175.69 79.5029 176.146 80.0635 177.058 80.0635C178.024 80.0635 178.666 79.7035 178.985 78.9834V73.6035H180.25V81H179.047L179.02 80.2686ZM183.787 73.6035L183.821 74.4238C184.364 73.7858 185.095 73.4668 186.016 73.4668C187.05 73.4668 187.754 73.8633 188.128 74.6562C188.374 74.3008 188.693 74.0137 189.085 73.7949C189.482 73.5762 189.949 73.4668 190.486 73.4668C192.109 73.4668 192.934 74.3258 192.961 76.0439V81H191.696V76.1191C191.696 75.5905 191.576 75.1963 191.334 74.9365C191.093 74.6722 190.687 74.54 190.117 74.54C189.648 74.54 189.258 74.6813 188.948 74.9639C188.638 75.2419 188.458 75.6178 188.408 76.0918V81H187.137V76.1533C187.137 75.0778 186.61 74.54 185.558 74.54C184.728 74.54 184.161 74.8932 183.856 75.5996V81H182.591V73.6035H183.787ZM195.322 80.3369C195.322 80.1182 195.386 79.9359 195.514 79.79C195.646 79.6442 195.842 79.5713 196.102 79.5713C196.361 79.5713 196.557 79.6442 196.69 79.79C196.826 79.9359 196.895 80.1182 196.895 80.3369C196.895 80.5465 196.826 80.722 196.69 80.8633C196.557 81.0046 196.361 81.0752 196.102 81.0752C195.842 81.0752 195.646 81.0046 195.514 80.8633C195.386 80.722 195.322 80.5465 195.322 80.3369Z" fill="#8D96BD"/>
</svg>
